HIERARCHY
ROOT hip
{
	OFFSET 0.000000 0.000000 0.000000 
	CHANNELS 6 Xposition Yposition Zposition Xrotation Zrotation Yrotation
	JOINT abdomen
	{
		OFFSET 0.000000 3.402643 0.000000 
		CHANNELS 3 Xrotation Zrotation Yrotation
		JOINT chest
		{
			OFFSET 0.000000 8.438565 -0.680529 
			CHANNELS 3 Xrotation Zrotation Yrotation
			JOINT neck
			{
				OFFSET 0.000000 10.207942 -0.272212 
				CHANNELS 3 Xrotation Zrotation Yrotation
				JOINT head
				{
					OFFSET 0.000000 3.130431 0.000000 
					CHANNELS 3 Xrotation Zrotation Yrotation
					End Site
					{
						OFFSET 0.000000 3.130435 0.000000 
					}
				}
			}
			JOINT lCollar
			{
				OFFSET 3.470700 6.669187 -0.816635 
				CHANNELS 3 Yrotation Zrotation Xrotation
				JOINT lShldr
				{
					OFFSET 3.198488 0.000000 0.000000 
					CHANNELS 3 Zrotation Yrotation Xrotation
					JOINT lForeArm
					{
						OFFSET 10.139888 0.000000 0.000000 
						CHANNELS 3 Yrotation Zrotation Xrotation
						JOINT lHand
						{
							OFFSET 8.370511 0.000000 0.000000 
							CHANNELS 3 Zrotation Yrotation Xrotation
							End Site
							{
								OFFSET 4.083176 0.000000 0.000000 
							}
						}
					}
				}
			}
			JOINT rCollar
			{
				OFFSET -3.470700 6.669187 -0.816635 
				CHANNELS 3 Yrotation Zrotation Xrotation
				JOINT rShldr
				{
					OFFSET -3.198488 0.000000 0.000000 
					CHANNELS 3 Zrotation Yrotation Xrotation
					JOINT rForeArm
					{
						OFFSET -10.139888 0.000000 0.000000 
						CHANNELS 3 Yrotation Zrotation Xrotation
						JOINT rHand
						{
							OFFSET -8.370511 0.000000 0.000000 
							CHANNELS 3 Zrotation Yrotation Xrotation
							End Site
							{
								OFFSET -4.083176 0.000000 0.000000 
							}
						}
					}
				}
			}
		}
	}
	JOINT lThigh
	{
		OFFSET 5.308129 -1.633274 1.361059 
		CHANNELS 3 Xrotation Zrotation Yrotation
		JOINT lShin
		{
			OFFSET -2.041588 -20.007561 0.000000 
			CHANNELS 3 Xrotation Zrotation Yrotation
			JOINT lFoot
			{
				OFFSET 0.000000 -19.190928 -1.224953 
				CHANNELS 3 Xrotation Yrotation Zrotation
				End Site
				{
					OFFSET 0.000000 -2.449906 4.627600 
				}
			}
		}
	}
	JOINT rThigh
	{
		OFFSET -5.308129 -1.633274 1.361059 
		CHANNELS 3 Xrotation Zrotation Yrotation
		JOINT rShin
		{
			OFFSET 2.041588 -20.007561 0.000000 
			CHANNELS 3 Xrotation Zrotation Yrotation
			JOINT rFoot
			{
				OFFSET 0.000000 -19.190928 -1.224953 
				CHANNELS 3 Xrotation Yrotation Zrotation
				End Site
				{
					OFFSET 0.000000 -2.449906 4.627600 
				}
			}
		}
	}
}
MOTION
Frames: 15
Frame Time: 0.011111
6.017297 54.218979 -74.464142 6.641738 -4.634524 0.541680 35.679783 3.972923 5.202179 -29.617743 -2.657902 0.999918 -7.038995 -0.661600 -1.598285 -14.052427 3.245203 -3.693852 8.861669 -1.932660 3.351237 -70.779915 -0.600578 47.344185 -89.021729 4.994298 34.457066 8.524705 12.647240 -18.099010 -6.806992 -0.756156 2.905732 65.126770 28.683022 48.587780 92.511841 -7.433424 36.646397 -8.534408 -12.637552 48.919785 -45.073013 8.515224 -8.050002 63.950077 -2.261939 -8.480228 -0.051129 -6.792224 -3.354655 29.762123 -0.496805 13.575878 5.874014 5.991386 1.523555 22.208206 -21.676132 9.989038 
6.060987 54.446472 -72.703133 6.574152 -4.698899 0.343129 35.209942 3.992354 5.264954 -28.854841 -2.614995 1.004955 -7.488785 -1.124329 -1.422984 -13.745685 3.532088 -3.485491 8.861669 -1.932660 3.351237 -71.794098 -0.472030 46.086803 -89.060745 5.029599 34.486454 8.524705 12.647240 -18.772840 -6.806992 -0.756156 2.905732 64.627167 28.806753 49.483143 92.456589 -7.402175 36.613770 -8.534408 -12.637552 48.675640 -44.040806 8.749719 -8.431652 58.536667 -2.886189 -8.039533 0.436824 -6.391577 -3.273949 30.929703 -0.632175 13.872820 5.967109 5.994885 1.552042 25.299122 -21.023016 10.449899 
6.050378 54.579105 -71.188049 7.156858 -4.789731 1.938379 34.725945 4.599136 4.429893 -28.904083 -2.612769 0.710176 -7.977456 -1.242026 -1.464755 -13.510572 3.443382 -3.590688 8.861669 -1.932660 3.351237 -72.255402 -0.476504 45.355064 -89.140221 5.099152 34.545288 8.524705 12.647240 -19.222059 -6.806992 -0.756156 2.905732 64.376236 28.746098 50.017010 92.346718 -7.339673 36.559586 -8.534408 -12.637552 48.490093 -44.431686 7.988173 -9.859193 53.258419 -3.461236 -7.531952 1.956510 -6.262764 -3.064232 30.081192 0.499860 12.497083 8.877924 5.984734 1.979726 25.362877 -18.918053 9.350198 
6.107487 54.707047 -69.510994 6.729151 -4.967337 1.685271 35.021496 4.339748 5.271738 -28.966805 -3.168550 1.001894 -7.830082 -0.656523 -1.824698 -13.723488 2.832407 -4.091092 8.861669 -1.932660 3.351237 -71.699623 -0.335662 45.376808 -89.259026 5.202645 34.624855 8.524705 12.647240 -19.339247 -6.806992 -0.756156 2.905732 64.666580 28.010380 50.083893 92.243988 -7.282945 36.495182 -8.534408 -12.637552 48.265480 -42.746826 8.466418 -10.273540 47.827755 -3.997589 -6.977760 2.327774 -5.607981 -3.003499 30.593090 0.743075 12.902021 11.348592 5.966857 2.308734 25.078844 -16.326992 7.968918 
6.113102 54.776638 -67.904152 7.074205 -5.394589 2.086180 34.489906 4.673610 5.484921 -28.646017 -3.402625 1.039753 -8.034781 -0.322771 -1.997342 -14.092031 2.271587 -4.301512 8.861669 -1.932660 3.351237 -71.595650 -0.701877 45.198334 -89.346947 5.278535 34.693920 8.524705 12.647240 -19.573620 -6.806992 -0.756156 2.905732 64.663864 27.755850 50.310635 92.060287 -7.177145 36.388275 -8.534408 -12.637552 48.382671 -42.222954 8.808213 -11.239836 42.498371 -4.458823 -6.391744 2.504281 -4.443049 -2.962916 29.857868 1.700178 12.768109 14.712304 5.905669 2.771719 24.002176 -13.493086 6.503337 
6.122153 54.835312 -66.262047 6.706568 -5.835056 2.136691 34.925488 4.903168 5.762680 -28.097656 -3.347308 1.047008 -8.844825 -0.293614 -2.006649 -14.331063 2.038138 -4.274119 8.861669 -1.932660 3.351237 -72.058472 -1.797852 44.741638 -89.299454 5.237443 34.664120 8.524705 12.647240 -19.886122 -6.806992 -0.756156 2.905732 64.556786 28.037758 50.720104 91.731262 -6.983499 36.198048 -8.534408 -12.637552 48.382671 -40.672890 9.481750 -11.838717 37.435154 -4.848829 -5.812459 2.752152 -3.017028 -2.945592 29.765165 2.490464 12.975032 18.120564 5.817868 3.243323 22.953997 -11.389970 5.484794 
6.121528 54.851540 -64.651474 6.576427 -6.412027 2.082813 35.228909 5.200646 6.111737 -27.608105 -3.299694 1.069788 -9.830542 -0.262503 -1.967235 -14.443626 1.825669 -4.175892 8.861669 -1.932660 3.351237 -72.437042 -3.001989 44.474922 -89.298553 5.237323 34.654385 8.524705 12.647240 -20.061899 -6.806992 -0.756156 2.905732 64.434212 28.261953 51.138672 91.353333 -6.749584 35.976601 -8.534408 -12.637552 48.187359 -39.582100 10.341405 -12.687779 32.887806 -5.147857 -5.237639 2.800032 -1.929157 -2.954566 29.226051 3.389281 13.301890 21.971575 5.691523 3.783757 22.600046 -9.936244 4.862753 
6.092194 54.815338 -63.062412 6.375301 -6.736683 1.911618 35.648773 5.026976 6.383664 -27.322725 -3.077762 1.130944 -10.679762 -0.340952 -1.909087 -14.356373 1.866137 -4.091081 8.861669 -1.932660 3.351237 -72.630028 -3.962546 44.498459 -89.379852 5.305083 34.713470 8.524705 12.647240 -20.100964 -6.806992 -0.756156 2.905732 64.406830 28.185511 51.405968 90.884552 -6.443544 35.705280 -8.534408 -12.637552 47.757671 -38.163803 11.092864 -13.080040 28.885679 -5.376117 -4.726463 2.381800 -1.232145 -2.997588 28.611912 4.101862 13.393479 26.177145 5.514765 4.341040 22.264633 -9.111811 4.520875 
6.088761 54.803165 -61.341675 6.450483 -6.791116 0.353768 35.201141 4.042696 7.191644 -26.450806 -2.924902 1.437775 -11.255680 -0.359487 -1.852510 -14.330402 2.052226 -4.017797 8.861669 -1.932660 3.351237 -72.694382 -5.164545 44.512280 -89.427017 5.346272 34.743336 8.524705 12.647240 -19.876358 -6.806992 -0.756156 2.905732 64.584557 28.006403 51.698936 90.314240 -6.042833 35.346764 -8.534408 -12.637552 46.849468 -36.561188 12.187163 -12.462858 25.729589 -5.557073 -4.299922 1.096647 -1.045183 -3.048756 27.448393 3.994499 13.950649 30.734785 5.279432 4.945685 21.947939 -8.496100 4.266906 
6.067853 54.683960 -59.799747 6.500058 -6.819425 0.334996 35.282745 3.897614 6.918834 -26.324078 -2.972510 1.387290 -11.246110 -0.458884 -1.753158 -15.093202 2.579409 -3.918617 8.861669 -1.932660 3.351237 -72.634506 -6.400917 44.392067 -89.443718 5.360044 34.763329 8.524705 12.647240 -19.622448 -6.806992 -0.756156 2.905732 64.893463 27.700325 52.119667 89.767868 -5.628466 34.993076 -8.534408 -12.637552 46.566265 -35.641376 12.382409 -12.125350 23.481781 -5.634588 -4.016392 1.016653 0.790313 -3.060318 26.006287 4.521760 13.266079 35.543854 4.964591 5.545889 21.872614 -8.382153 4.213793 
6.092194 54.496094 -58.222862 6.299476 -6.541951 0.526061 35.415047 3.621363 6.463923 -26.169491 -3.267574 1.323699 -10.943185 -0.112530 -1.812535 -15.981194 2.585017 -3.948727 8.861669 -1.932660 3.351237 -72.113907 -7.514353 44.576210 -89.485023 5.393332 34.792919 8.524705 12.647240 -19.427135 -6.806992 -0.756156 2.905732 65.465157 27.149820 52.347374 89.272980 -5.218271 34.644863 -8.534408 -12.637552 46.683456 -34.181381 12.078688 -11.092861 21.948944 -5.699001 -3.802735 0.680419 1.810153 -3.067311 24.645081 4.726653 12.193783 40.593773 4.595244 6.168676 21.485197 -8.951122 4.452954 
6.085952 54.295433 -56.659405 5.812918 -6.100128 0.625966 35.796234 2.989685 5.954737 -26.130756 -3.313849 1.267612 -10.494165 0.048050 -1.773576 -16.405815 2.820391 -3.877389 8.861669 -1.932660 3.351237 -71.550812 -8.700942 44.933681 -89.485023 5.393332 34.792919 8.524705 12.647240 -18.880262 -6.806992 -0.756156 2.905732 65.897758 26.422770 52.381672 88.772842 -4.766767 34.272778 -8.534408 -12.637552 46.712749 -32.179050 11.658302 -9.099256 20.888428 -5.738883 -3.674760 0.681452 1.992934 -3.061773 23.339762 4.795006 11.247972 45.821766 4.154871 6.755290 21.390009 -10.082017 4.880523 
6.052561 54.053268 -55.161789 5.284836 -5.411492 1.254870 36.471287 2.275084 4.925253 -26.365093 -3.201790 1.101547 -10.562451 0.000295 -1.645517 -15.753618 3.413304 -3.699076 8.861669 -1.932660 3.351237 -70.968399 -10.242987 45.403648 -89.402542 5.325923 34.723095 8.524705 12.647240 -18.304090 -6.806992 -0.756156 2.905732 66.360558 25.810751 52.211643 88.215370 -4.207489 33.809837 -8.534408 -12.637552 46.751812 -30.312601 10.729967 -7.221037 20.314028 -5.768687 -3.580021 1.253533 1.913843 -3.043026 21.788345 4.794832 9.672489 51.159176 3.654591 7.331201 21.855415 -11.460340 5.443092 
6.056930 53.798309 -53.539658 4.944354 -4.332041 1.016952 36.533504 0.802972 4.180551 -26.119358 -2.989688 1.093033 -10.845499 0.028217 -1.561247 -14.971112 3.890996 -3.558734 8.861669 -1.932660 3.351237 -70.317230 -11.811688 46.084393 -89.379036 5.305612 34.713486 8.524705 12.647240 -17.884169 -6.806992 -0.756156 2.905732 66.789810 25.171469 51.986488 87.707298 -3.629218 33.315273 -8.534408 -12.637552 47.044781 -28.478256 9.695287 -5.277545 20.572050 -5.751582 -3.609818 0.708139 1.741914 -3.061635 19.956964 3.896701 8.347260 56.453259 3.109972 7.823830 22.738153 -12.274679 5.856843 
6.039768 53.473133 -51.987740 4.448970 -3.276343 1.321988 36.909439 -0.386574 3.026711 -26.312958 -2.572609 0.937376 -10.201135 0.126159 -1.499692 -15.254341 3.925335 -3.428287 8.861669 -1.932660 3.351237 -69.820671 -13.185095 46.809509 -89.372063 5.298512 34.713215 8.524705 12.647240 -17.591200 -6.806992 -0.756156 2.905732 66.899841 24.369595 51.961472 87.287224 -3.084504 32.825695 -8.534408 -12.637552 47.572121 -26.823069 8.436427 -3.505498 21.416943 -5.729347 -3.731382 0.576834 -0.050845 -3.062880 18.041965 3.056690 6.396137 61.763405 2.503554 8.287035 23.708927 -13.247416 6.368621 
